<?xml version="1.0" encoding="utf-8"?>
<!-- Generator: Adobe Illustrator 20.0.0, SVG Export Plug-In . SVG Version: 6.00 Build 0)  -->
<svg version="1.1" id="Laag_1" xmlns="http://www.w3.org/2000/svg" xmlns:xlink="http://www.w3.org/1999/xlink" x="0px" y="0px"
	 viewBox="0 0 50 50" style="enable-background:new 0 0 50 50;" xml:space="preserve">
<g>
	<path d="M5.9,14.1h1.4v34.1c0,0.8,0.6,1.4,1.4,1.4h32.8c0.8,0,1.4-0.6,1.4-1.4V14.1h1.4c0.8,0,1.4-0.6,1.4-1.4V7.2
		c0-0.8-0.6-1.4-1.4-1.4H31.8V1.8c0-0.8-0.6-1.4-1.4-1.4H19.5c-0.8,0-1.4,0.6-1.4,1.4v4.1H5.9c-0.8,0-1.4,0.6-1.4,1.4v5.5
		C4.5,13.5,5.1,14.1,5.9,14.1z M40,46.9H10V14.1h30V46.9z M20.9,3.1h8.2v2.7h-8.2V3.1z M7.2,8.6h12.3h10.9h12.3v2.7h-1.4H8.6H7.2
		V8.6z"/>
	<path d="M25,44.1c0.8,0,1.4-0.6,1.4-1.4V18.2c0-0.8-0.6-1.4-1.4-1.4s-1.4,0.6-1.4,1.4v24.6C23.6,43.5,24.2,44.1,25,44.1z"/>
	<path d="M16.8,44.1c0.8,0,1.4-0.6,1.4-1.4V18.2c0-0.8-0.6-1.4-1.4-1.4c-0.8,0-1.4,0.6-1.4,1.4v24.6C15.4,43.5,16.1,44.1,16.8,44.1z
		"/>
	<path d="M33.2,44.1c0.8,0,1.4-0.6,1.4-1.4V18.2c0-0.8-0.6-1.4-1.4-1.4c-0.8,0-1.4,0.6-1.4,1.4v24.6C31.8,43.5,32.4,44.1,33.2,44.1z
		"/>
</g>
</svg>
