<?xml version="1.0" encoding="utf-8"?>
<!-- Generator: Adobe Illustrator 20.0.0, SVG Export Plug-In . SVG Version: 6.00 Build 0)  -->
<svg version="1.1"
	 id="Laag_1" xmlns:cc="http://creativecommons.org/ns#" xmlns:dc="http://purl.org/dc/elements/1.1/" xmlns:inkscape="http://www.inkscape.org/namespaces/inkscape" xmlns:rdf="http://www.w3.org/1999/02/22-rdf-syntax-ns#" xmlns:sodipodi="http://sodipodi.sourceforge.net/DTD/sodipodi-0.dtd" xmlns:svg="http://www.w3.org/2000/svg"
	 xmlns="http://www.w3.org/2000/svg" xmlns:xlink="http://www.w3.org/1999/xlink" x="0px" y="0px" viewBox="0 0 50 50"
	 style="enable-background:new 0 0 50 50;" xml:space="preserve">
<g transform="translate(0,-952.36218)">
	<path d="M37.5,952.8c-0.3,0-0.5,0.2-0.7,0.4L3.9,985.9c-0.2,0.2-0.3,0.4-0.3,0.6l-3.2,13.9c-0.2,0.7,0.3,1.4,0.9,1.5
		c0.2,0,0.4,0,0.6,0l13.9-3.2c0.2-0.1,0.4-0.2,0.6-0.3l32.8-32.8c0.5-0.5,0.5-1.3,0-1.8c0,0,0,0,0,0l-10.7-10.7
		C38.2,952.9,37.8,952.7,37.5,952.8z M37.6,955.8l8.9,8.9l-31,31l-8.9-8.9L37.6,955.8z M5.5,989.3l7.5,7.5L3.3,999L5.5,989.3z"/>
</g>
</svg>
