<svg xmlns="http://www.w3.org/2000/svg" viewBox="0 0 692 147" fill="#ffffff"><path class="st0" d="M61.4 21.9c-19.2 0-34.8 15.6-34.8 34.8V84c0 19.2 15.6 34.8 34.8 34.8 19.2 0 34.8-15.6 34.8-34.8V56.8c0-19.2-15.6-34.9-34.8-34.9zM34.5 56.8c0-14.8 12.1-26.9 26.9-26.9 9 0 16.9 4.4 21.8 11.2L35.8 92.3c-.9-2.6-1.3-5.4-1.3-8.3V56.8zM88.3 84c0 14.8-12.1 26.9-26.9 26.9-8.9 0-16.8-4.3-21.7-11L87 48.8c.8 2.5 1.2 5.2 1.2 8V84zM132.8 102.3v-9.5l27.9-41.3h-26.9V40.3h40.8v9.5l-28 41.4H177v11.1h-44.2zM235.6 75.3h-35.8v5.3c0 5.3 2.5 11.6 12.3 11.6 6.4 0 10.6-3.8 11.7-10.3h11.6c-1.7 13.4-10.5 21.5-23.3 21.5-14.2 0-23.5-8.9-23.5-22.8V62c0-13.7 9.6-22.6 23.5-22.6 14.1 0 23.5 8.6 23.5 22.6v13.3zM224.2 62c0-5.2-2.5-11.6-12.2-11.6-7.7 0-12.3 4.3-12.3 11.6v2.2h24.5V62zM271.5 51.6c-3.9 0-9.1 3-9.1 11.7v39h-11.2v-62h11.2v5.6c1.9-3.8 5.7-5.6 10.6-5.6h4.7v11.2h-6.2zM311.7 103.5c-14.2 0-23.5-8.9-23.5-22.8V62c0-13.7 9.6-22.6 23.5-22.6 14.1 0 23.5 8.6 23.5 22.6v18.7c0 13.7-9.7 22.8-23.5 22.8zM323.9 62c0-5.2-2.5-11.6-12.2-11.6-7.7 0-12.3 4.3-12.3 11.6v18.7c0 5.3 2.5 11.6 12.3 11.6 7.6 0 12.2-4.4 12.2-11.6V62zM397 60.8h-11.5c-.9-5.2-4-10.4-11.8-10.4-7.7 0-12.3 4.3-12.3 11.6v18.7c0 5.3 2.5 11.6 12.3 11.6 6.4 0 10.6-3.8 11.7-10.3H397c-1.7 13.4-10.5 21.5-23.3 21.5-14.2 0-23.5-8.9-23.5-22.8V62c0-13.7 9.6-22.6 23.5-22.6 12.9 0 21.8 8 23.3 21.4zM433.3 103.5c-14.2 0-23.5-8.9-23.5-22.8V62c0-13.7 9.6-22.6 23.5-22.6 14.1 0 23.5 8.6 23.5 22.6v18.7c0 13.7-9.7 22.8-23.5 22.8zM445.5 62c0-5.2-2.5-11.6-12.2-11.6-7.7 0-12.3 4.3-12.3 11.6v18.7c0 5.3 2.5 11.6 12.3 11.6 7.6 0 12.2-4.4 12.2-11.6V62zM496.2 103.5c-4.7 0-9.8-2.7-11.9-5.1V129H473V40.2h11.2v4c2.5-2.7 6.9-4.8 11.9-4.8 13.9 0 23 8.9 23 22.6v18.7c.2 13.9-8.7 22.8-22.9 22.8zM508.1 62c0-7.3-4.5-11.6-11.9-11.6-9.8 0-11.9 6.4-11.9 11.6v18.7c0 7.2 4.5 11.6 11.9 11.6 9.8 0 11.9-6.3 11.9-11.6V62zM528.5 40.3h11.2V18h11.2v22.3h12.9v11.2h-12.9V86c0 3.9 2.2 5.1 4.8 5.1h8.3v11.1h-8.7c-8.7 0-15.6-4.7-15.6-16.7v-34h-11.2V40.3zM623.3 75.3h-35.8v5.3c0 5.3 2.5 11.6 12.3 11.6 6.4 0 10.6-3.8 11.7-10.3H623c-1.7 13.4-10.5 21.5-23.3 21.5-14.2 0-23.5-8.9-23.5-22.8V62c0-13.7 9.6-22.6 23.5-22.6 14.1 0 23.5 8.6 23.5 22.6v13.3zM611.9 62c0-5.2-2.5-11.6-12.2-11.6-7.7 0-12.3 4.3-12.3 11.6v2.2h24.5V62zM659.2 51.6c-3.9 0-9.1 3-9.1 11.7v39h-11.2v-62h11.2v5.6c1.9-3.8 5.7-5.6 10.6-5.6h4.7v11.2h-6.2z"/></svg>
